<?xml version="1.0" encoding="utf-8"?>
<!-- Generator: Adobe Illustrator 19.2.1, SVG Export Plug-In . SVG Version: 6.00 Build 0)  -->
<svg version="1.1" id="Layer_1" xmlns="http://www.w3.org/2000/svg" xmlns:xlink="http://www.w3.org/1999/xlink" x="0px" y="0px"
	 viewBox="0 0 1000 250" style="enable-background:new 0 0 1000 250;" xml:space="preserve">
<style type="text/css">
	.st0{fill:#AF0A0A;}
	.st1{fill:none;stroke:#000000;stroke-width:4;stroke-miterlimit:10;}
	.st2{font-family:'ArialMT';}
	.st3{font-size:12px;}
	.st4{fill:#0000FF;}
	.st5{font-family:'MyriadPro-Regular';}
	.st6{font-size:25px;}
</style>
<rect class="st0" width="1000" height="250"/>
<path id="my_path" class="st1" d="M198.1,72.6c0.3-4.1,3.9-7.2,8-6.9c5.1,0.4,9,4.8,8.6,9.9c-0.5,6.4-6,11.2-12.4,10.8
	c-8-0.6-14-7.5-13.5-15.5c0.7-10,9.4-17.5,19.4-16.8c12.5,0.9,21.9,11.8,21,24.3c-1.1,15.6-14.7,27.4-30.3,26.3
	c-19.5-1.4-34.3-18.4-32.9-37.9c1.7-24.4,23-42.8,47.4-41.1c28.5,2,40.6,20.1,34.6,52.6c-2.7,12.9-6.1,25.6-9.1,38.5
	c-4.8,20.6-5.6,46,3,55.2c14.5,15.6,38.9,16.4,54.5,1.9"/>
<text class="st2 st3">   </text>
<text transform="matrix(1 0 0 1 247.0101 82.9027)" class="st2 st3"> </text>
<text transform="matrix(1 0 0 1 246.2762 86.1552)" class="st2 st3"> </text>
<text transform="matrix(1 0 0 1 245.5219 89.4028)" class="st2 st3"> </text>
<text transform="matrix(1 0 0 1 244.7511 92.6471)" class="st2 st3"> </text>
<text transform="matrix(1 0 0 1 243.968 95.8888)" class="st2 st3"> </text>
<text transform="matrix(1 0 0 1 243.1753 99.1262)" class="st4 st5 st6">S</text>
<text transform="matrix(1 0 0 1 240.1804 111.0812)" class="st4 st5 st6">h</text>
<text transform="matrix(1 0 0 1 237.1804 124.6353)" class="st4 st5 st6">a</text>
<text transform="matrix(1 0 0 1 235.5496 136.5901)" class="st4 st5 st6">n</text>
<text transform="matrix(1 0 0 1 235.071 150.5033)" class="st4 st5 st6">n</text>
<text transform="matrix(1 0 0 1 236.6431 164.6648)" class="st4 st5 st6">o</text>
<text transform="matrix(1 0 0 1 244.9501 175.7654)" class="st4 st5 st6">n</text>
<text transform="matrix(1 0 0 1 257.2639 182.1205)" class="st2 st3"> </text>
<text transform="matrix(1 0 0 1 260.4568 183.0873)" class="st2 st3"> </text>
<text transform="matrix(1 0 0 1 263.7214 183.7743)" class="st2 st3"> </text>
<text class="st2 st3"> </text>
</svg>
