<?xml version="1.0" encoding="utf-8"?>
<!-- Generator: Adobe Illustrator 19.2.1, SVG Export Plug-In . SVG Version: 6.00 Build 0)  -->
<svg version="1.1" id="Layer_1" xmlns="http://www.w3.org/2000/svg" xmlns:xlink="http://www.w3.org/1999/xlink" x="0px" y="0px"
	 viewBox="0 0 1000 250" style="enable-background:new 0 0 1000 250;" xml:space="preserve">
<style type="text/css">
	.st0{fill:#AF0A0A;}
	.st1{fill:#FFFFFF;}
	.st2{font-family:'Raleway-Bold';}
	.st3{font-size:150px;}
	.st4{fill:none;stroke:#000000;stroke-width:4;stroke-miterlimit:10;}
	.st5{fill:#0000FF;}
	.st6{font-family:'ArialMT';}
	.st7{font-size:12px;}
	.st8{font-family:'MyriadPro-Regular';}
	.st9{font-size:25px;}
	.st10{enable-background:new    ;}
</style>
<rect class="st0" width="1000" height="250"/>
<text transform="matrix(1 0 0 1 74.675 171.9564)" class="st1 st2 st3">Hillary Skye</text>
<rect x="189.8" y="61.4" class="st0" width="30.9" height="22.6"/>
<path id="SVGID_x5F_1_x5F_" class="st4" d="M198.1,72.6c0.3-4.1,3.9-7.2,8-6.9c5.1,0.4,9,4.8,8.6,9.9c-0.5,6.4-6,11.2-12.4,10.8
	c-8-0.6-14-7.5-13.5-15.5c0.7-10,9.4-17.5,19.4-16.8c12.5,0.9,21.9,11.8,21,24.3c-1.1,15.6-14.7,27.4-30.3,26.3
	c-19.5-1.4-34.3-18.4-32.9-37.9c1.7-24.4,23-42.8,47.4-41.1c28.5,2,40.6,20.1,34.6,52.6c-2.7,12.9-6.1,25.6-9.1,38.5
	c-4.8,20.6-5.6,46,3,55.2c14.5,15.6,38.9,16.4,54.5,1.9"/>
<circle class="st5" cx="205.3" cy="75.3" r="10.2"/>
<text transform="matrix(1 0 0 1 247.0101 82.9027)" class="st6 st7"> </text>
<text transform="matrix(1 0 0 1 246.2762 86.1552)" class="st6 st7"> </text>
<text transform="matrix(1 0 0 1 245.5219 89.4028)" class="st6 st7"> </text>
<text transform="matrix(1 0 0 1 244.7619 92.6504)" class="st5 st8 st9">S</text>
<text transform="matrix(1 0 0 1 241.8104 104.6155)" class="st5 st8 st9">h</text>
<text transform="matrix(1 0 0 1 238.4753 118.0887)" class="st5 st8 st9">a</text>
<text transform="matrix(1 0 0 1 236.3067 129.9542)" class="st5 st8 st9">n</text>
<text transform="matrix(1 0 0 1 235.0987 143.8013)" class="st5 st8 st9">n</text>
<text transform="matrix(1 0 0 1 235.5646 157.7837)" class="st5 st8 st9">o</text>
<text transform="matrix(1 0 0 1 240.169 170.974)" class="st5 st8 st9">n</text>
<text transform="matrix(1 0 0 1 251.1903 179.3735)" class="st6 st7"> </text>
<text transform="matrix(1 0 0 1 254.167 180.8798)" class="st10 st6 st7"> <animateTransform  accumulate="none" additive="replace" attributeName="transform" begin="0s" calcMode="linear" dur="8s" fill="remove" from=".5" restart="always" to="10" type="scale" values="0;.5;1"></animateTransform><animate  accumulate="none" additive="replace" attributeName="startOffset" calcMode="linear" dur="8s" fill="remove" keyTimes="0;.5;1" repeatCount="indefinite" restart="always" values="0;.5;1"></animate></text>
<text class="st6 st7"> </text>
<circle class="st5" cx="205.3" cy="75.3" r="10.2"/>
</svg>
